HIERARCHY
ROOT Hips
{
	OFFSET 0.00000 0.00000 0.00000
	CHANNELS 6 Xposition Yposition Zposition Zrotation Yrotation Xrotation 
	JOINT RightUpLegDummy
	{
		OFFSET 0 0 0
		CHANNELS 3 Zrotation Yrotation Xrotation
		JOINT RightUpLeg
		{
			OFFSET -3.52197 -3.41223 0.04002
			CHANNELS 3 Zrotation Yrotation Xrotation
			JOINT RightLeg
			{
				OFFSET 0.00006 -17.42390 1.60435
				CHANNELS 3 Zrotation Yrotation Xrotation
				JOINT RightFoot
				{
					OFFSET 0.06154 -16.50078 -1.63900
					CHANNELS 3 Zrotation Yrotation Xrotation
					JOINT RightToes
					{
						OFFSET 0.00298 -1.73825 3.34613
						CHANNELS 3 Zrotation Yrotation Xrotation
						End Site
						{
							OFFSET 0.00480 -0.05416 3.85043
						}
					}
				}
			}
		}
	}
	JOINT SpineDummy
	{
		OFFSET 0 0 0
		CHANNELS 3 Zrotation Yrotation Xrotation
		JOINT Spine
		{
			OFFSET 0.00000 4.68130 0.00000
			CHANNELS 3 Zrotation Yrotation Xrotation
			JOINT Spine1
			{
				OFFSET -0.00000 10.10138 0.05002
				CHANNELS 3 Zrotation Yrotation Xrotation
				JOINT HEadDummy
				{
					OFFSET 0 0 0
					CHANNELS 3 Zrotation Yrotation Xrotation
					JOINT Head
					{
						OFFSET -0.00000 3.43865 0.00438
						CHANNELS 3 Zrotation Yrotation Xrotation
						End Site
						{
							OFFSET -0.11417 5.02924 0.98962
						}
					}
				}
				JOINT LeftShoulder1Dummy
				{
					OFFSET 0 0 0
					CHANNELS 3 Zrotation Yrotation Xrotation
					JOINT LeftShoulder1
					{
						OFFSET 3.53937 -0.14262 -0.08662
						CHANNELS 3 Zrotation Yrotation Xrotation
						JOINT LeftArm
						{
							OFFSET 4.04833 -0.00133 0.12681
							CHANNELS 3 Zrotation Yrotation Xrotation
							JOINT LeftForeArm
							{
								OFFSET 10.33880 -0.01036 -0.55515
								CHANNELS 3 Zrotation Yrotation Xrotation
								JOINT LeftHand
								{
									OFFSET 8.69677 0.07543 0.40060
									CHANNELS 3 Zrotation Yrotation Xrotation
									End Site
									{
										OFFSET 5.28377 -0.21905 0.59205
									}
								}
							}
						}
					}
				}
				JOINT RightShoulderDummy
				{
					OFFSET 0 0 0
					CHANNELS 3 Zrotation Yrotation Xrotation
					JOINT RightShoulder
					{
						OFFSET -3.53937 -0.14262 -0.08660
						CHANNELS 3 Zrotation Yrotation Xrotation
						JOINT RightArm
						{
							OFFSET -4.04833 -0.00133 0.12683
							CHANNELS 3 Zrotation Yrotation Xrotation
							JOINT RightForeArm
							{
								OFFSET -10.37987 -0.01039 -0.55511
								CHANNELS 3 Zrotation Yrotation Xrotation
								JOINT RightHand
								{
									OFFSET -8.67398 0.07538 0.40058
									CHANNELS 3 Zrotation Yrotation Xrotation
									End Site
									{
										OFFSET -5.24810 -0.21916 0.59204
									}
								}
							}
						}
					}
				}
			}
		}
	}
	JOINT LeftUpLegDummy
	{
		OFFSET 0 0 0
		CHANNELS 3 Zrotation Yrotation Xrotation
		JOINT LeftUpLeg
		{
			OFFSET 3.52197 -3.41223 0.04002
			CHANNELS 3 Zrotation Yrotation Xrotation
			JOINT LeftLeg
			{
				OFFSET -0.00012 -17.42399 1.60337
				CHANNELS 3 Zrotation Yrotation Xrotation
				JOINT LeftFoot
				{
					OFFSET -0.09972 -16.50070 -1.63802
					CHANNELS 3 Zrotation Yrotation Xrotation
					JOINT LeftToes
					{
						OFFSET -0.01575 -1.73823 3.34611
						CHANNELS 3 Zrotation Yrotation Xrotation
						End Site
						{
							OFFSET 0.03150 -0.01868 3.85031
						}
					}
				}
			}
		}
	}
}
MOTION
Frames: 11
Frame Time: 0.033333
-59.2275 39.3139 -5.0372 -168.8080 86.2441 -161.9280 0.0000 0.0000 0.0000 -1.3825 -0.1652 -29.9074 -0.3965 -10.1174 -2.0832 7.8820 -0.9523 2.4997 -0.0000 -0.0000 0.0000 0.0000 0.0000 0.0000 -5.0722 -4.9177 -6.0869 6.4088 -7.4842 17.5232 0.0000 0.0000 0.0000 -1.6789 4.3854 -16.2708 0.0000 0.0000 0.0000 -18.6312 -4.6143 2.0440 -61.0588 -26.5135 39.9186 -2.1754 -22.9133 -12.8923 11.3816 -2.9906 -0.7965 0.0000 0.0000 0.0000 19.0684 1.2754 1.2237 59.2409 1.2437 2.4619 10.2592 12.7382 26.2763 -5.1898 3.1251 -0.3538 0.0000 0.0000 0.0000 -2.3610 2.1478 11.2272 -1.1449 4.8092 5.5021 -1.2801 0.0364 -17.4040 -0.0000 -0.0000 -0.0000
-57.8857 39.2119 -4.9728 -163.3420 86.1016 -156.6700 0.0000 0.0000 0.0000 -0.8687 0.3784 -29.2597 -1.1298 -11.0878 -0.0295 7.4185 -0.7638 0.4363 -0.0000 -0.0000 0.0000 0.0000 0.0000 0.0000 -4.5197 -4.9979 -6.4365 6.7389 -7.8178 18.1100 0.0000 0.0000 0.0000 -1.8489 4.6514 -16.9335 0.0000 0.0000 0.0000 -18.7537 -4.6158 2.0535 -60.8995 -26.7949 37.0704 -3.6928 -21.5704 -9.7660 11.5337 -3.1460 -0.8218 0.0000 0.0000 0.0000 19.0828 0.9013 1.1285 58.6671 1.6401 -0.3099 10.9230 11.3360 29.4402 -5.2623 3.3561 -0.3677 0.0000 0.0000 0.0000 -1.5082 2.5120 13.0546 -0.8908 4.0967 6.4636 -3.4622 -0.0520 -16.2866 -0.0000 -0.0000 -0.0000
-56.3747 39.1801 -4.8998 -156.6860 85.4669 -150.3010 0.0000 0.0000 0.0000 -0.0175 0.8739 -27.7840 -1.7919 -12.4474 2.0612 4.5691 -0.5308 2.3242 -0.0000 -0.0000 0.0000 0.0000 0.0000 0.0000 -3.5939 -5.2890 -7.1872 7.0763 -8.3623 18.8049 0.0000 0.0000 0.0000 -2.0168 5.1055 -17.0684 0.0000 0.0000 0.0000 -19.1150 -4.6016 2.0772 -60.5481 -26.6699 30.3370 -6.8274 -19.0021 -2.8609 11.8165 -3.2162 -0.8493 0.0000 0.0000 0.0000 19.2550 0.8933 1.1336 57.7924 1.7959 -2.8195 11.5243 9.8896 32.1046 -5.3912 3.2188 -0.3718 0.0000 0.0000 0.0000 -0.3810 2.7279 14.9431 -0.1958 3.4881 7.6562 -5.7453 -0.0412 -13.8675 -0.0000 -0.0000 -0.0000
-54.7633 39.2274 -4.8286 -149.7260 84.7080 -143.5550 0.0000 0.0000 0.0000 1.0180 0.9045 -26.0851 -1.6899 -12.7482 3.5382 2.7417 -0.3975 5.7287 -0.0000 -0.0000 0.0000 0.0000 0.0000 0.0000 -2.1936 -5.5360 -7.8200 7.3654 -8.7449 18.7821 0.0000 0.0000 0.0000 -2.2319 5.4141 -16.4395 0.0000 0.0000 0.0000 -19.3999 -4.7417 2.1348 -60.3752 -25.7530 17.6719 -11.0088 -14.3817 9.4615 12.3525 -3.2023 -0.8881 0.0000 0.0000 0.0000 19.5774 1.1811 1.2217 56.7057 1.4760 -5.1464 12.0011 8.5261 33.3834 -5.1892 2.1150 -0.3175 0.0000 0.0000 0.0000 0.8612 2.8224 16.2399 0.8404 3.5514 9.5854 -9.0322 0.1600 -10.1676 -0.0000 -0.0000 -0.0000
-53.1706 39.2666 -4.7445 -140.4930 84.4165 -134.5720 0.0000 0.0000 0.0000 2.1024 0.8465 -24.6956 -1.4341 -12.0547 5.5891 3.7414 -0.5875 7.3762 -0.0000 -0.0000 0.0000 0.0000 0.0000 0.0000 -0.6257 -5.4244 -7.7696 7.5219 -8.6003 17.7777 0.0000 0.0000 0.0000 -2.3445 5.5071 -15.2717 0.0000 0.0000 0.0000 -19.2222 -4.9788 2.1821 -60.8499 -23.9775 2.4240 -13.6862 -8.5587 23.3547 13.0510 -3.2583 -0.9462 0.0000 0.0000 0.0000 19.6969 1.4905 1.3077 55.8826 1.4133 -8.3791 12.2811 6.7736 35.1306 -4.4371 0.8120 -0.2294 0.0000 0.0000 0.0000 1.9236 2.7882 15.5808 2.1536 4.7139 14.7621 -12.2956 0.7229 -4.9358 -0.0000 -0.0000 -0.0000
-51.6804 39.2378 -4.6357 -128.0860 84.2658 -122.6470 0.0000 0.0000 0.0000 3.4919 1.2605 -23.4274 -1.7934 -11.2748 8.5387 4.7719 -0.7300 6.6167 -0.0000 -0.0000 0.0000 0.0000 0.0000 0.0000 0.9569 -5.0119 -7.1293 7.6633 -8.0727 16.9016 0.0000 0.0000 0.0000 -2.0749 5.4538 -14.2674 0.0000 0.0000 0.0000 -18.6726 -5.1367 2.1787 -61.7785 -22.0280 -7.2054 -13.9277 -4.6581 31.3839 13.5599 -3.3256 -0.9917 0.0000 0.0000 0.0000 19.4734 1.7278 1.3589 55.6192 2.4662 -11.6098 12.1420 4.9054 37.8387 -3.8085 0.5296 -0.1884 0.0000 0.0000 0.0000 2.8942 2.2843 12.4633 3.8544 6.1535 24.0874 -12.8748 1.6195 3.3140 -0.0000 -0.0000 -0.0000
-50.3573 39.1015 -4.5104 -117.2920 83.5286 -112.5570 0.0000 0.0000 0.0000 5.3993 2.0126 -22.5561 -2.8010 -10.8556 12.5503 3.3184 -0.4439 4.2356 -0.0000 -0.0000 0.0000 0.0000 0.0000 0.0000 2.8234 -4.5435 -6.4744 7.8920 -7.4926 17.3394 0.0000 0.0000 0.0000 -1.3945 5.1490 -13.8640 0.0000 0.0000 0.0000 -18.2788 -5.2177 2.1672 -62.1413 -20.7383 -9.5525 -13.8391 -3.3929 33.1767 13.6970 -3.2742 -0.9965 0.0000 0.0000 0.0000 19.3377 1.9193 1.4019 55.4954 4.7090 -12.9237 11.8592 3.7083 39.6381 -4.0886 1.0810 -0.2184 0.0000 0.0000 0.0000 4.0603 1.2422 7.4099 5.8911 6.2722 35.8130 -10.7992 2.3625 14.2537 -0.0000 -0.0000 -0.0000
-49.1397 38.9526 -4.3931 -111.8050 82.5245 -107.8440 0.0000 0.0000 0.0000 7.3031 2.4242 -21.7241 -3.6812 -10.5680 16.4904 0.8731 -0.0906 1.2470 -0.0000 -0.0000 0.0000 0.0000 0.0000 0.0000 4.8610 -4.0326 -6.1673 8.0331 -6.8176 18.7565 0.0000 0.0000 0.0000 -0.6044 4.4597 -13.7114 0.0000 0.0000 0.0000 -18.3110 -5.3848 2.2114 -61.5916 -20.0495 -8.0056 -14.2305 -3.4919 32.6705 13.7613 -3.2473 -0.9984 0.0000 0.0000 0.0000 19.6265 2.0381 1.4474 54.9894 7.6234 -12.3951 11.9469 3.2151 39.7689 -4.8441 1.2777 -0.2662 0.0000 0.0000 0.0000 5.0254 -0.7194 1.6530 7.9689 5.7892 46.9359 -8.7589 2.6494 23.9961 -0.0000 -0.0000 -0.0000
-47.8589 38.9465 -4.2904 -107.0800 82.2937 -103.8600 0.0000 0.0000 0.0000 8.3645 1.9717 -19.8899 -3.6762 -9.5549 18.6476 -0.0534 0.0020 -1.6378 -0.0000 -0.0000 0.0000 0.0000 0.0000 0.0000 6.1761 -3.2558 -6.2925 7.8218 -5.7720 20.0652 0.0000 0.0000 0.0000 0.0285 3.5261 -13.1579 0.0000 0.0000 0.0000 -18.4310 -5.6213 2.2802 -60.9976 -19.3072 -5.7623 -14.5425 -4.0784 32.1257 14.1218 -3.4049 -1.0437 0.0000 0.0000 0.0000 20.0152 2.1157 1.4880 54.3107 10.8039 -11.1357 12.2969 2.9774 39.3545 -4.9664 0.9573 -0.2627 0.0000 0.0000 0.0000 5.1646 -2.3341 -4.0301 10.1568 5.2645 55.8749 -7.1818 2.4082 28.1629 -0.0000 -0.0000 -0.0000
-46.4538 39.0946 -4.1894 -97.3951 83.0809 -94.8570 0.0000 0.0000 0.0000 8.3319 0.9191 -16.8003 -2.7655 -7.5218 18.7207 0.2722 -0.0322 -4.0763 -0.0000 -0.0000 0.0000 0.0000 0.0000 0.0000 6.3556 -2.1241 -6.7632 7.2895 -4.3191 20.8944 0.0000 0.0000 0.0000 0.4920 2.6390 -11.9988 0.0000 0.0000 0.0000 -18.2140 -5.6656 2.2730 -61.1314 -18.0907 -4.8138 -14.5167 -4.6951 31.8004 14.6508 -3.5290 -1.0988 0.0000 0.0000 0.0000 20.0061 2.2668 1.5273 53.9947 14.0901 -10.0249 12.5042 2.8444 39.5490 -4.4172 0.9197 -0.2311 0.0000 0.0000 0.0000 4.3969 -2.7287 -9.3944 11.9321 4.7041 61.9953 -5.2808 1.6357 26.1517 -0.0000 -0.0000 -0.0000
-45.0135 39.2640 -4.0887 -80.6678 84.0093 -78.7449 0.0000 0.0000 0.0000 7.7036 -0.3930 -13.3773 -1.5432 -4.8327 18.0655 0.2691 -0.0360 -6.1257 -0.0000 -0.0000 0.0000 0.0000 0.0000 0.0000 6.0964 -0.8299 -7.2112 6.6496 -2.6634 21.3160 0.0000 0.0000 0.0000 0.8684 1.8701 -10.4771 0.0000 0.0000 0.0000 -17.7178 -5.4025 2.1670 -61.7737 -16.4318 -4.1494 -14.3648 -5.5300 30.3726 14.9168 -3.4123 -1.1055 0.0000 0.0000 0.0000 19.6584 2.4502 1.5566 54.1004 17.2667 -9.2274 12.4389 3.2271 39.6353 -4.2680 1.3380 -0.2355 0.0000 0.0000 0.0000 3.3673 -2.3937 -14.3687 12.3834 4.1223 65.0771 -3.6055 0.9162 21.0731 -0.0000 -0.0000 -0.0000
